<svg width="72" height="72" viewBox="0 0 72 72" fill="none" xmlns="http://www.w3.org/2000/svg">
<path d="M19.5 60C14.95 60 11.0625 58.425 7.8375 55.275C4.6125 52.125 3 48.275 3 43.725C3 39.825 4.175 36.35 6.525 33.3C8.875 30.25 11.95 28.3 15.75 27.45C17 22.85 19.5 19.125 23.25 16.275C27 13.425 31.25 12 36 12C41.85 12 46.8125 14.0375 50.8875 18.1125C54.9625 22.1875 57 27.15 57 33C60.45 33.4 63.3125 34.8875 65.5875 37.4625C67.8625 40.0375 69 43.05 69 46.5C69 50.25 67.6875 53.4375 65.0625 56.0625C62.4375 58.6875 59.25 60 55.5 60H19.5ZM19.5 54H55.5C57.6 54 59.375 53.275 60.825 51.825C62.275 50.375 63 48.6 63 46.5C63 44.4 62.275 42.625 60.825 41.175C59.375 39.725 57.6 39 55.5 39H51V33C51 28.85 49.5375 25.3125 46.6125 22.3875C43.6875 19.4625 40.15 18 36 18C31.85 18 28.3125 19.4625 25.3875 22.3875C22.4625 25.3125 21 28.85 21 33H19.5C16.6 33 14.125 34.025 12.075 36.075C10.025 38.125 9 40.6 9 43.5C9 46.4 10.025 48.875 12.075 50.925C14.125 52.975 16.6 54 19.5 54Z" fill="url(#paint0_linear_17_10)"/>
<defs>
<linearGradient id="paint0_linear_17_10" x1="36" y1="12" x2="36" y2="60" gradientUnits="userSpaceOnUse">
<stop stop-color="#8B8B8B"/>
<stop offset="1" stop-color="#373737"/>
</linearGradient>
</defs>
</svg>
