<svg width="72" height="72" viewBox="0 0 72 72" fill="none" xmlns="http://www.w3.org/2000/svg">
<path d="M41.85 65.7C41.1 66.1 40.3375 66.1625 39.5625 65.8875C38.7875 65.6125 38.2 65.1 37.8 64.35L33.3 55.35C32.9 54.6 32.8375 53.8375 33.1125 53.0625C33.3875 52.2875 33.9 51.7 34.65 51.3C35.4 50.9 36.1625 50.8375 36.9375 51.1125C37.7125 51.3875 38.3 51.9 38.7 52.65L43.2 61.65C43.6 62.4 43.6625 63.1625 43.3875 63.9375C43.1125 64.7125 42.6 65.3 41.85 65.7ZM59.85 65.7C59.1 66.1 58.3375 66.1625 57.5625 65.8875C56.7875 65.6125 56.2 65.1 55.8 64.35L51.3 55.35C50.9 54.6 50.8375 53.8375 51.1125 53.0625C51.3875 52.2875 51.9 51.7 52.65 51.3C53.4 50.9 54.1625 50.8375 54.9375 51.1125C55.7125 51.3875 56.3 51.9 56.7 52.65L61.2 61.65C61.6 62.4 61.6625 63.1625 61.3875 63.9375C61.1125 64.7125 60.6 65.3 59.85 65.7ZM23.85 65.7C23.1 66.1 22.3375 66.1625 21.5625 65.8875C20.7875 65.6125 20.2 65.1 19.8 64.35L15.3 55.35C14.9 54.6 14.8375 53.8375 15.1125 53.0625C15.3875 52.2875 15.9 51.7 16.65 51.3C17.4 50.9 18.1625 50.8375 18.9375 51.1125C19.7125 51.3875 20.3 51.9 20.7 52.65L25.2 61.65C25.6 62.4 25.6625 63.1625 25.3875 63.9375C25.1125 64.7125 24.6 65.3 23.85 65.7ZM22.5 48C17.95 48 14.0625 46.3875 10.8375 43.1625C7.6125 39.9375 6 36.05 6 31.5C6 27.35 7.375 23.725 10.125 20.625C12.875 17.525 16.275 15.7 20.325 15.15C21.925 12.3 24.1125 10.0625 26.8875 8.4375C29.6625 6.8125 32.7 6 36 6C40.5 6 44.4125 7.4375 47.7375 10.3125C51.0625 13.1875 53.075 16.775 53.775 21.075C57.225 21.375 60.125 22.8 62.475 25.35C64.825 27.9 66 30.95 66 34.5C66 38.25 64.6875 41.4375 62.0625 44.0625C59.4375 46.6875 56.25 48 52.5 48H22.5ZM22.5 42H52.5C54.6 42 56.375 41.275 57.825 39.825C59.275 38.375 60 36.6 60 34.5C60 32.4 59.275 30.625 57.825 29.175C56.375 27.725 54.6 27 52.5 27H48V24C48 20.7 46.825 17.875 44.475 15.525C42.125 13.175 39.3 12 36 12C33.6 12 31.4125 12.65 29.4375 13.95C27.4625 15.25 25.975 17 24.975 19.2L24.225 21H22.35C19.5 21.1 17.0625 22.1625 15.0375 24.1875C13.0125 26.2125 12 28.65 12 31.5C12 34.4 13.025 36.875 15.075 38.925C17.125 40.975 19.6 42 22.5 42Z" fill="url(#paint0_linear_17_4)"/>
<defs>
<linearGradient id="paint0_linear_17_4" x1="6" y1="6" x2="66" y2="66" gradientUnits="userSpaceOnUse">
<stop stop-color="#33A4E4"/>
<stop offset="1" stop-color="#135A9B"/>
</linearGradient>
</defs>
</svg>
