<svg width="72" height="72" viewBox="0 0 72 72" fill="none" xmlns="http://www.w3.org/2000/svg">
<path d="M18 57C17.15 57 16.4375 56.7125 15.8625 56.1375C15.2875 55.5625 15 54.85 15 54C15 53.15 15.2875 52.4375 15.8625 51.8625C16.4375 51.2875 17.15 51 18 51C18.85 51 19.5625 51.2875 20.1375 51.8625C20.7125 52.4375 21 53.15 21 54C21 54.85 20.7125 55.5625 20.1375 56.1375C19.5625 56.7125 18.85 57 18 57ZM54 57C53.15 57 52.4375 56.7125 51.8625 56.1375C51.2875 55.5625 51 54.85 51 54C51 53.15 51.2875 52.4375 51.8625 51.8625C52.4375 51.2875 53.15 51 54 51C54.85 51 55.5625 51.2875 56.1375 51.8625C56.7125 52.4375 57 53.15 57 54C57 54.85 56.7125 55.5625 56.1375 56.1375C55.5625 56.7125 54.85 57 54 57ZM27 69C26.15 69 25.4375 68.7125 24.8625 68.1375C24.2875 67.5625 24 66.85 24 66C24 65.15 24.2875 64.4375 24.8625 63.8625C25.4375 63.2875 26.15 63 27 63C27.85 63 28.5625 63.2875 29.1375 63.8625C29.7125 64.4375 30 65.15 30 66C30 66.85 29.7125 67.5625 29.1375 68.1375C28.5625 68.7125 27.85 69 27 69ZM36 57C35.15 57 34.4375 56.7125 33.8625 56.1375C33.2875 55.5625 33 54.85 33 54C33 53.15 33.2875 52.4375 33.8625 51.8625C34.4375 51.2875 35.15 51 36 51C36.85 51 37.5625 51.2875 38.1375 51.8625C38.7125 52.4375 39 53.15 39 54C39 54.85 38.7125 55.5625 38.1375 56.1375C37.5625 56.7125 36.85 57 36 57ZM45 69C44.15 69 43.4375 68.7125 42.8625 68.1375C42.2875 67.5625 42 66.85 42 66C42 65.15 42.2875 64.4375 42.8625 63.8625C43.4375 63.2875 44.15 63 45 63C45.85 63 46.5625 63.2875 47.1375 63.8625C47.7125 64.4375 48 65.15 48 66C48 66.85 47.7125 67.5625 47.1375 68.1375C46.5625 68.7125 45.85 69 45 69ZM22.5 48C17.95 48 14.0625 46.3875 10.8375 43.1625C7.6125 39.9375 6 36.05 6 31.5C6 27.35 7.375 23.725 10.125 20.625C12.875 17.525 16.275 15.7 20.325 15.15C21.925 12.3 24.1125 10.0625 26.8875 8.4375C29.6625 6.8125 32.7 6 36 6C40.5 6 44.4125 7.4375 47.7375 10.3125C51.0625 13.1875 53.075 16.775 53.775 21.075C57.225 21.375 60.125 22.8 62.475 25.35C64.825 27.9 66 30.95 66 34.5C66 38.25 64.6875 41.4375 62.0625 44.0625C59.4375 46.6875 56.25 48 52.5 48H22.5ZM22.5 42H52.5C54.6 42 56.375 41.275 57.825 39.825C59.275 38.375 60 36.6 60 34.5C60 32.4 59.275 30.625 57.825 29.175C56.375 27.725 54.6 27 52.5 27H48V24C48 20.7 46.825 17.875 44.475 15.525C42.125 13.175 39.3 12 36 12C33.6 12 31.4125 12.65 29.4375 13.95C27.4625 15.25 25.975 17 24.975 19.2L24.225 21H22.35C19.5 21.1 17.0625 22.1625 15.0375 24.1875C13.0125 26.2125 12 28.65 12 31.5C12 34.4 13.025 36.875 15.075 38.925C17.125 40.975 19.6 42 22.5 42Z" fill="url(#paint0_linear_17_6)"/>
<defs>
<linearGradient id="paint0_linear_17_6" x1="36" y1="6" x2="36" y2="69" gradientUnits="userSpaceOnUse">
<stop offset="0.0322914" stop-color="#9C9C9C"/>
<stop offset="0.69375" stop-color="#565656"/>
<stop offset="0.714583" stop-color="white"/>
<stop offset="1" stop-color="white"/>
</linearGradient>
</defs>
</svg>
