<svg width="72" height="72" viewBox="0 0 72 72" fill="none" xmlns="http://www.w3.org/2000/svg">
<path d="M36 15C35.15 15 34.4375 14.7125 33.8625 14.1375C33.2875 13.5625 33 12.85 33 12V6C33 5.15 33.2875 4.4375 33.8625 3.8625C34.4375 3.2875 35.15 3 36 3C36.85 3 37.5625 3.2875 38.1375 3.8625C38.7125 4.4375 39 5.15 39 6V12C39 12.85 38.7125 13.5625 38.1375 14.1375C37.5625 14.7125 36.85 15 36 15ZM50.85 21.15C50.3 20.6 50.025 19.9125 50.025 19.0875C50.025 18.2625 50.3 17.55 50.85 16.95L55.05 12.675C55.65 12.075 56.3625 11.775 57.1875 11.775C58.0125 11.775 58.725 12.075 59.325 12.675C59.875 13.225 60.15 13.925 60.15 14.775C60.15 15.625 59.875 16.325 59.325 16.875L55.05 21.15C54.5 21.7 53.8 21.975 52.95 21.975C52.1 21.975 51.4 21.7 50.85 21.15ZM60 39C59.15 39 58.4375 38.7125 57.8625 38.1375C57.2875 37.5625 57 36.85 57 36C57 35.15 57.2875 34.4375 57.8625 33.8625C58.4375 33.2875 59.15 33 60 33H66C66.85 33 67.5625 33.2875 68.1375 33.8625C68.7125 34.4375 69 35.15 69 36C69 36.85 68.7125 37.5625 68.1375 38.1375C67.5625 38.7125 66.85 39 66 39H60ZM36 69C35.15 69 34.4375 68.7125 33.8625 68.1375C33.2875 67.5625 33 66.85 33 66V60C33 59.15 33.2875 58.4375 33.8625 57.8625C34.4375 57.2875 35.15 57 36 57C36.85 57 37.5625 57.2875 38.1375 57.8625C38.7125 58.4375 39 59.15 39 60V66C39 66.85 38.7125 67.5625 38.1375 68.1375C37.5625 68.7125 36.85 69 36 69ZM16.95 21.15L12.675 16.95C12.075 16.35 11.775 15.625 11.775 14.775C11.775 13.925 12.075 13.225 12.675 12.675C13.225 12.125 13.925 11.85 14.775 11.85C15.625 11.85 16.325 12.125 16.875 12.675L21.15 16.95C21.7 17.5 21.975 18.2 21.975 19.05C21.975 19.9 21.7 20.6 21.15 21.15C20.55 21.7 19.85 21.975 19.05 21.975C18.25 21.975 17.55 21.7 16.95 21.15ZM55.05 59.325L50.85 55.05C50.3 54.45 50.025 53.7375 50.025 52.9125C50.025 52.0875 50.3 51.4 50.85 50.85C51.4 50.3 52.0875 50.025 52.9125 50.025C53.7375 50.025 54.45 50.3 55.05 50.85L59.325 55.05C59.925 55.6 60.2125 56.3 60.1875 57.15C60.1625 58 59.875 58.725 59.325 59.325C58.725 59.925 58 60.225 57.15 60.225C56.3 60.225 55.6 59.925 55.05 59.325ZM6 39C5.15 39 4.4375 38.7125 3.8625 38.1375C3.2875 37.5625 3 36.85 3 36C3 35.15 3.2875 34.4375 3.8625 33.8625C4.4375 33.2875 5.15 33 6 33H12C12.85 33 13.5625 33.2875 14.1375 33.8625C14.7125 34.4375 15 35.15 15 36C15 36.85 14.7125 37.5625 14.1375 38.1375C13.5625 38.7125 12.85 39 12 39H6ZM12.675 59.325C12.125 58.775 11.85 58.075 11.85 57.225C11.85 56.375 12.125 55.675 12.675 55.125L16.95 50.85C17.5 50.3 18.1875 50.025 19.0125 50.025C19.8375 50.025 20.55 50.3 21.15 50.85C21.75 51.45 22.05 52.1625 22.05 52.9875C22.05 53.8125 21.75 54.525 21.15 55.125L16.95 59.325C16.35 59.925 15.625 60.225 14.775 60.225C13.925 60.225 13.225 59.925 12.675 59.325ZM36 54C31 54 26.75 52.25 23.25 48.75C19.75 45.25 18 41 18 36C18 31 19.75 26.75 23.25 23.25C26.75 19.75 31 18 36 18C41 18 45.25 19.75 48.75 23.25C52.25 26.75 54 31 54 36C54 41 52.25 45.25 48.75 48.75C45.25 52.25 41 54 36 54ZM36 48C39.3 48 42.125 46.825 44.475 44.475C46.825 42.125 48 39.3 48 36C48 32.7 46.825 29.875 44.475 27.525C42.125 25.175 39.3 24 36 24C32.7 24 29.875 25.175 27.525 27.525C25.175 29.875 24 32.7 24 36C24 39.3 25.175 42.125 27.525 44.475C29.875 46.825 32.7 48 36 48Z" fill="url(#paint0_linear_17_2)"/>
<defs>
<linearGradient id="paint0_linear_17_2" x1="3.37498" y1="3.375" x2="68.625" y2="68.625" gradientUnits="userSpaceOnUse">
<stop stop-color="#E3B23C"/>
<stop offset="1" stop-color="#EBFF00"/>
</linearGradient>
</defs>
</svg>
