<svg width="72" height="72" viewBox="0 0 72 72" fill="none" xmlns="http://www.w3.org/2000/svg">
<path d="M39 67.05L41.7 63.975L39.15 62.7C38.3 62.25 37.775 61.55 37.575 60.6C37.375 59.65 37.6 58.8 38.25 58.05L43.5 52.05C43.75 51.7 44.0875 51.4375 44.5125 51.2625C44.9375 51.0875 45.35 51 45.75 51C47.05 51 47.9625 51.575 48.4875 52.725C49.0125 53.875 48.85 54.95 48 55.95L45.3 59.025L47.85 60.3C48.7 60.75 49.225 61.45 49.425 62.4C49.625 63.35 49.4 64.2 48.75 64.95L43.5 70.95C43.25 71.3 42.9125 71.5625 42.4875 71.7375C42.0625 71.9125 41.65 72 41.25 72C39.95 72 39.0375 71.425 38.5125 70.275C37.9875 69.125 38.15 68.05 39 67.05ZM21 67.05L23.7 63.975L21.15 62.7C20.3 62.25 19.775 61.55 19.575 60.6C19.375 59.65 19.6 58.8 20.25 58.05L25.5 52.05C25.75 51.7 26.0875 51.4375 26.5125 51.2625C26.9375 51.0875 27.35 51 27.75 51C29.05 51 29.9625 51.575 30.4875 52.725C31.0125 53.875 30.85 54.95 30 55.95L27.3 59.025L29.85 60.3C30.7 60.75 31.225 61.45 31.425 62.4C31.625 63.35 31.4 64.2 30.75 64.95L25.5 70.95C25.25 71.3 24.9125 71.5625 24.4875 71.7375C24.0625 71.9125 23.65 72 23.25 72C21.95 72 21.0375 71.425 20.5125 70.275C19.9875 69.125 20.15 68.05 21 67.05ZM22.5 48C17.95 48 14.0625 46.3875 10.8375 43.1625C7.6125 39.9375 6 36.05 6 31.5C6 27.35 7.375 23.725 10.125 20.625C12.875 17.525 16.275 15.7 20.325 15.15C21.925 12.3 24.1125 10.0625 26.8875 8.4375C29.6625 6.8125 32.7 6 36 6C40.5 6 44.4125 7.4375 47.7375 10.3125C51.0625 13.1875 53.075 16.775 53.775 21.075C57.225 21.375 60.125 22.8 62.475 25.35C64.825 27.9 66 30.95 66 34.5C66 38.25 64.6875 41.4375 62.0625 44.0625C59.4375 46.6875 56.25 48 52.5 48H22.5ZM22.5 42H52.5C54.6 42 56.375 41.275 57.825 39.825C59.275 38.375 60 36.6 60 34.5C60 32.4 59.275 30.625 57.825 29.175C56.375 27.725 54.6 27 52.5 27H48V24C48 20.7 46.825 17.875 44.475 15.525C42.125 13.175 39.3 12 36 12C33.6 12 31.4125 12.65 29.4375 13.95C27.4625 15.25 25.975 17 24.975 19.2L24.225 21H22.35C19.5 21.1 17.0625 22.1625 15.0375 24.1875C13.0125 26.2125 12 28.65 12 31.5C12 34.4 13.025 36.875 15.075 38.925C17.125 40.975 19.6 42 22.5 42Z" fill="url(#paint0_linear_17_8)"/>
<defs>
<linearGradient id="paint0_linear_17_8" x1="36" y1="6" x2="36" y2="72" gradientUnits="userSpaceOnUse">
<stop offset="0.0625" stop-color="#515151"/>
<stop offset="0.646875" stop-color="#282828"/>
<stop offset="0.667708" stop-color="#EBFF00"/>
<stop offset="1" stop-color="#EBFF00"/>
</linearGradient>
</defs>
</svg>
